<?xml version="1.0" encoding="UTF-8"?>
<svg id="Layer_1" data-name="Layer 1" xmlns="http://www.w3.org/2000/svg" xmlns:xlink="http://www.w3.org/1999/xlink" viewBox="0 0 56 56">
  <defs>
    <style>
      .cls-1 {
        fill: url(#linear-gradient);
      }

      .cls-1, .cls-2, .cls-3 {
        stroke-width: 0px;
      }

      .cls-2 {
        fill: url(#linear-gradient-2);
      }

      .cls-3 {
        fill: #fff;
      }
    </style>
    <linearGradient id="linear-gradient" x1="0" y1="28" x2="56" y2="28" gradientUnits="userSpaceOnUse">
      <stop offset="0" stop-color="#2d83ec"/>
      <stop offset="1" stop-color="#1ac9ff"/>
    </linearGradient>
    <linearGradient id="linear-gradient-2" x1="28.07" y1="44.35" x2="31.57" y2="20.31" gradientTransform="translate(0 58) scale(1 -1)" gradientUnits="userSpaceOnUse">
      <stop offset="0" stop-color="#ffea83"/>
      <stop offset=".08" stop-color="#ffdd35"/>
      <stop offset="1" stop-color="#ffa800"/>
    </linearGradient>
  </defs>
  <path class="cls-1" d="M28,56c15.46,0,28-12.54,28-28S43.46,0,28,0,0,12.54,0,28s12.54,28,28,28Z"/>
  <path class="cls-3" d="M43.74,18.76l-14.89,26.63c-.31.55-1.1.55-1.41,0l-15.18-26.63c-.34-.6.17-1.32.85-1.2l14.91,2.66c.1.02.19.02.29,0l14.59-2.66c.67-.12,1.19.59.85,1.19Z"/>
  <path class="cls-2" d="M34.66,13.29l-11.52,2.26c-.19.04-.33.2-.34.39l-.71,11.97c-.02.28.24.5.52.44l3.21-.74c.3-.07.57.2.51.5l-.95,4.67c-.06.31.23.58.54.49l1.98-.6c.31-.09.6.18.54.49l-1.51,7.33c-.09.46.52.71.77.32l.17-.26,9.39-18.73c.16-.31-.11-.67-.46-.6l-3.3.64c-.31.06-.57-.23-.49-.53l2.15-7.47c.09-.3-.18-.59-.49-.53Z"/>
</svg>
